HIERARCHY
ROOT SpineBase
{
  OFFSET 0.000000 0.000000 0.000000
  CHANNELS 6 Xposition Yposition Zposition Zrotation Xrotation Yrotation
  JOINT SpineMid
  {
    OFFSET 0.000000 31.873275 0.000000
    CHANNELS 3 Zrotation Xrotation Yrotation
    JOINT SpineShoulder
    {
      OFFSET -0.340018 23.936908 -1.090859
      CHANNELS 3 Zrotation Xrotation Yrotation
      JOINT Neck
      {
        OFFSET -0.028335 7.964378 -0.455533
        CHANNELS 3 Zrotation Xrotation Yrotation
        JOINT Head
        {
          OFFSET -5.240189 12.609366 -0.431534
          CHANNELS 3 Zrotation Xrotation Yrotation
          End Site
          {
            OFFSET 0 0 0
          }
        }
      }
      JOINT ShoulderLeft
      {
        OFFSET -16.077837 -6.025019 7.571772
        CHANNELS 3 Zrotation Xrotation Yrotation
        JOINT ElbowLeft
        {
          OFFSET -1.943516 -27.763953 4.873630
          CHANNELS 3 Zrotation Xrotation Yrotation
          JOINT WristLeft
          {
            OFFSET -0.561830 -21.286568 0.168925
            CHANNELS 3 Zrotation Xrotation Yrotation
            JOINT HandLeft
            {
              OFFSET -0.777859 -8.091987 0.935254
              CHANNELS 3 Zrotation Xrotation Yrotation
              JOINT HandTipLeft
              {
                OFFSET 0.291738 -7.657617 0.592846
                CHANNELS 3 Zrotation Xrotation Yrotation
                End Site
                {
                  OFFSET 0 0 0
                }
              }
              JOINT ThumbLeft
              {
                OFFSET -2.141593 -1.409705 -2.445804
                CHANNELS 3 Zrotation Xrotation Yrotation
                End Site
                {
                  OFFSET 0 0 0
                }
              }
            }
          }
        }
      }
      JOINT ShoulderRight
      {
        OFFSET 12.894634 -3.287122 -8.600773
        CHANNELS 3 Zrotation Xrotation Yrotation
        JOINT ElbowRight
        {
          OFFSET 8.972259 -23.662791 -4.338815
          CHANNELS 3 Zrotation Xrotation Yrotation
          JOINT WristRight
          {
            OFFSET -1.024254 -20.742543 -12.242822
            CHANNELS 3 Zrotation Xrotation Yrotation
            JOINT HandRight
            {
              OFFSET -3.147948 -6.388721 -3.260830
              CHANNELS 3 Zrotation Xrotation Yrotation
              JOINT HandTipRight
              {
                OFFSET -2.536126 -7.675755 -1.209208
                CHANNELS 3 Zrotation Xrotation Yrotation
                End Site
                {
                  OFFSET 0 0 0
                }
              }
              JOINT ThumbRight
              {
                OFFSET -3.847681 -0.792624 0.195504
                CHANNELS 3 Zrotation Xrotation Yrotation
                End Site
                {
                  OFFSET 0 0 0
                }
              }
            }
          }
        }
      }
    }
  }
  JOINT HipLeft
  {
    OFFSET -6.176823 0.013542 -0.278833
    CHANNELS 3 Zrotation Xrotation Yrotation
    JOINT KneeLeft
    {
      OFFSET 3.374530 -37.024497 4.403099
      CHANNELS 3 Zrotation Xrotation Yrotation
      JOINT AnkleLeft
      {
        OFFSET 8.088519 -35.396489 10.211620
        CHANNELS 3 Zrotation Xrotation Yrotation
        JOINT FootLeft
        {
          OFFSET -2.096927 -8.362926 -3.840664
          CHANNELS 3 Zrotation Xrotation Yrotation
          End Site
          {
            OFFSET 0 0 0
          }
        }
      }
    }
  }
  JOINT HipRight
  {
    OFFSET 6.586171 1.506610 -6.106169
    CHANNELS 3 Zrotation Xrotation Yrotation
    JOINT KneeRight
    {
      OFFSET 10.167161 -34.520399 0.164068
      CHANNELS 3 Zrotation Xrotation Yrotation
      JOINT AnkleRight
      {
        OFFSET 7.514981 -37.387407 10.521212
        CHANNELS 3 Zrotation Xrotation Yrotation
        JOINT FootRight
        {
          OFFSET -1.104286 -8.152153 -5.957412
          CHANNELS 3 Zrotation Xrotation Yrotation
          End Site
          {
            OFFSET 0 0 0
          }
        }
      }
    }
  }
}
MOTION
Frames: 8
Frame Time: 0.033333
-22.595449 83.194047 336.580264 3.815561 0.398216 37.940070 -0.830408 2.423049 -37.888139 -0.683121 -1.214430 -0.043272 -0.707947 1.591036 0.846309 0.000000 0.000000 0.000000 -2.698967 3.201145 -0.592786 6.912799 1.871438 0.605274 4.751515 -0.329754 1.031297 -3.264954 1.462482 -0.121980 0.000000 0.000000 0.000000 0.000000 0.000000 0.000000 -14.453931 26.698237 16.012953 -35.557506 2.559849 4.278306 -21.980304 5.440847 -5.862441 0.988101 21.015149 -11.773826 0.000000 0.000000 0.000000 0.000000 0.000000 0.000000 -4.490888 2.885763 -38.028712 3.442349 1.576595 1.057326 -4.909551 2.450661 -0.496818 0.000000 0.000000 0.000000 -3.255024 2.031283 -37.895614 2.101026 0.384491 0.659735 4.201512 -1.735418 -5.073631 0.000000 0.000000 0.000000
-23.047411 83.734666 336.731658 2.994869 0.186075 38.757281 -0.259468 2.052352 -38.705696 -0.528372 -1.200013 -0.031399 -1.047344 2.036096 0.960084 0.000000 0.000000 0.000000 -2.834419 3.315255 -0.604617 7.794841 2.596313 0.591905 5.183966 -0.525830 1.213149 -4.321290 -0.087791 -0.220480 0.000000 0.000000 0.000000 0.000000 0.000000 0.000000 -17.469383 29.865671 19.047067 -43.804058 7.972130 7.817629 -21.431656 4.258813 -10.788171 0.979224 25.380193 -10.823794 0.000000 0.000000 0.000000 0.000000 0.000000 0.000000 -3.026814 2.666271 -38.792229 2.967499 1.129882 0.980216 -4.310399 2.963561 -0.884087 0.000000 0.000000 0.000000 -2.452544 1.729361 -38.725124 2.151053 0.415649 0.679266 3.925438 -2.620007 -4.793677 0.000000 0.000000 0.000000
-23.915668 84.299880 336.781951 1.587342 0.075095 38.872207 0.468346 1.432303 -38.829880 -0.154148 -1.216592 -0.009097 -1.583385 2.615113 1.137471 0.000000 0.000000 0.000000 -2.941771 3.394900 -0.616535 8.351988 3.397526 0.563516 5.492338 -1.691756 1.531298 -5.234913 0.711387 -0.422379 0.000000 0.000000 0.000000 0.000000 0.000000 0.000000 -20.053407 31.598899 21.331477 -51.889156 13.072729 13.081556 -21.573448 3.331627 -15.524013 0.438176 28.240003 -9.752153 0.000000 0.000000 0.000000 0.000000 0.000000 0.000000 -1.283053 0.937665 -38.862748 1.928382 1.494682 0.872703 -3.221484 3.572319 -1.523061 0.000000 0.000000 0.000000 -0.263360 0.975063 -38.679467 1.462458 -0.261082 0.522860 3.356832 -4.196164 -4.217925 0.000000 0.000000 0.000000
-24.103374 84.959636 336.798900 1.254014 -0.015312 39.618991 0.563677 1.302288 -39.581846 -0.024269 -1.233669 -0.001413 -2.353959 3.262896 1.352561 0.000000 0.000000 0.000000 -3.092865 3.460229 -0.632441 8.575328 3.933677 0.554191 5.352207 -1.891378 1.535420 -5.513188 1.189853 -0.436566 0.000000 0.000000 0.000000 0.000000 0.000000 0.000000 -23.455488 33.361016 24.212233 -58.107191 15.544356 16.616396 -21.094508 5.902105 -17.379269 2.720742 27.349866 -10.573741 0.000000 0.000000 0.000000 0.000000 0.000000 0.000000 -0.956271 0.811414 -39.612052 1.929912 1.530651 0.880815 -3.510217 3.678026 -1.429180 0.000000 0.000000 0.000000 0.093498 0.872651 -39.413199 1.587154 -0.290204 0.549689 2.705347 -5.488794 -3.679782 0.000000 0.000000 0.000000
-24.065094 85.592981 336.731871 1.303197 0.003765 40.160123 0.388637 1.313585 -40.126703 -0.754045 -1.257566 -0.060479 -2.566382 3.948100 1.659313 0.000000 0.000000 0.000000 -2.315248 3.518311 -0.584034 8.251822 4.499302 0.513008 4.983099 -5.276397 2.047156 -4.162424 5.858190 -0.632942 0.000000 0.000000 0.000000 0.000000 0.000000 0.000000 -25.888743 34.145332 26.609468 -62.733880 17.442487 20.219844 -21.374281 9.245247 -17.968810 2.549000 24.617097 -12.574741 0.000000 0.000000 0.000000 0.000000 0.000000 0.000000 -0.998461 0.837546 -40.152868 1.940857 1.604612 0.899625 -4.220821 3.863629 -1.179437 0.000000 0.000000 0.000000 -0.158937 1.072028 -39.952566 2.023507 -0.273933 0.600815 1.862079 -6.711118 -3.056466 0.000000 0.000000 0.000000
-24.046029 86.120423 336.620040 1.301126 0.062659 40.211366 0.292030 1.276166 -40.179532 -0.701154 -1.225108 -0.056830 -3.589682 4.556210 1.942176 0.000000 0.000000 0.000000 -2.349777 3.500962 -0.588165 8.187625 4.711619 0.501742 2.251956 -8.711377 1.948815 -0.800156 11.250834 -0.760328 0.000000 0.000000 0.000000 0.000000 0.000000 0.000000 -28.693098 34.292792 28.397324 -65.173024 18.037777 22.390622 -21.243801 11.134509 -18.124696 1.495124 25.903770 -11.714264 0.000000 0.000000 0.000000 0.000000 0.000000 0.000000 -1.034140 0.792134 -40.204929 1.971159 1.719376 0.932417 -4.680122 4.214719 -1.118185 0.000000 0.000000 0.000000 -1.034140 0.792134 -40.204929 2.681942 0.450998 0.831952 1.092469 -7.094696 -2.623566 0.000000 0.000000 0.000000
-24.031357 86.503153 336.511439 1.294919 0.132570 39.914620 0.170232 1.261149 -39.885672 -0.617098 -1.208564 -0.051779 -4.349310 5.187748 2.244218 0.000000 0.000000 0.000000 -2.332728 3.487839 -0.585023 7.992924 4.645131 0.502210 0.940845 -12.474371 2.144861 2.491636 16.814931 -1.466242 0.000000 0.000000 0.000000 0.000000 0.000000 0.000000 -31.680082 34.547585 30.423029 -64.895950 19.042242 23.242842 -24.414520 11.372969 -19.165290 1.460052 26.507935 -11.722135 0.000000 0.000000 0.000000 0.000000 0.000000 0.000000 -1.731346 1.397416 -39.999223 2.938427 1.780896 1.081640 -5.447501 4.847390 -0.993575 0.000000 0.000000 0.000000 -0.627538 1.411982 -39.678628 2.931594 -0.397458 0.673532 0.552238 -6.845484 -2.434180 0.000000 0.000000 0.000000
-24.029856 86.776760 336.446871 1.271527 0.134131 39.524776 0.113256 1.273020 -39.498172 -0.549460 -1.187701 -0.047588 -4.944519 5.841875 2.563036 0.000000 0.000000 0.000000 -2.300634 3.480388 -0.579977 7.888531 4.651585 0.494403 0.651272 -15.991484 2.564036 4.525292 22.150042 -2.511758 0.000000 0.000000 0.000000 0.000000 0.000000 0.000000 -34.513943 34.626039 32.295593 -61.496061 19.576516 22.091892 -27.515674 10.714616 -20.124365 -1.277605 27.592874 -10.930820 0.000000 0.000000 0.000000 0.000000 0.000000 0.000000 -2.060564 1.344647 -39.654318 3.210801 2.163172 1.160849 -6.466374 5.767315 -0.790575 0.000000 0.000000 0.000000 -0.698785 1.676754 -39.239205 3.305963 -0.585383 0.671731 0.835955 -6.284584 -2.849075 0.000000 0.000000 0.000000
